ISO-10303-21;
HEADER;
/* Generated by software containing ST-Developer
 * from STEP Tools, Inc. (www.steptools.com) 
 */
/* OPTION: using custom renumber hook */

FILE_DESCRIPTION(
/* description */ ('STEP AP242 Edition 2',
'CAx-IF Rec.Pracs.---Representation and Presentation of Product Manufa
cturing Information (PMI)---4.0---2014-10-13',
'CAx-IF Rec.Pracs.---3D Tessellated Geometry---0.4---2014-09-14','2;1',
'CAx-IF Rec.Pracs.---User Defined Attributes---1.5---2016-08-15'),
/* implementation_level */ '2;1');

FILE_NAME(
/* name */ 'Part Studio 1 - Part 2',
/* time_stamp */ '2026-08-15T07:22:08Z',
/* author */ (''),
/* organization */ (''),
/* preprocessor_version */ 'ST-DEVELOPER v20',
/* originating_system */ 'ONSHAPE BY PTC INC, 1.219',
/* authorisation */ '  ');

FILE_SCHEMA (('AP242_MANAGED_MODEL_BASED_3D_ENGINEERING_MIM_LF { 1 0 10303 442 3 1 4 }'));
ENDSEC;

DATA;
#10=SHAPE_REPRESENTATION_RELATIONSHIP('','',#871,#11);
#11=ADVANCED_BREP_SHAPE_REPRESENTATION('',(#869),#1451);
#12=PLANE('',#876);
#13=PLANE('',#880);
#14=PLANE('',#884);
#15=PLANE('',#891);
#16=PLANE('',#895);
#17=PLANE('',#899);
#18=PLANE('',#906);
#19=PLANE('',#910);
#20=PLANE('',#914);
#21=PLANE('',#921);
#22=PLANE('',#925);
#23=PLANE('',#929);
#24=PLANE('',#933);
#25=PLANE('',#934);
#26=PLANE('',#935);
#27=PLANE('',#936);
#28=PLANE('',#937);
#29=PLANE('',#938);
#30=PLANE('',#939);
#31=PLANE('',#952);
#32=PLANE('',#956);
#33=PLANE('',#957);
#34=LINE('',#1211,#110);
#35=LINE('',#1215,#111);
#36=LINE('',#1217,#112);
#37=LINE('',#1219,#113);
#38=LINE('',#1221,#114);
#39=LINE('',#1225,#115);
#40=LINE('',#1229,#116);
#41=LINE('',#1231,#117);
#42=LINE('',#1233,#118);
#43=LINE('',#1237,#119);
#44=LINE('',#1241,#120);
#45=LINE('',#1243,#121);
#46=LINE('',#1245,#122);
#47=LINE('',#1249,#123);
#48=LINE('',#1256,#124);
#49=LINE('',#1260,#125);
#50=LINE('',#1262,#126);
#51=LINE('',#1264,#127);
#52=LINE('',#1266,#128);
#53=LINE('',#1270,#129);
#54=LINE('',#1274,#130);
#55=LINE('',#1276,#131);
#56=LINE('',#1278,#132);
#57=LINE('',#1282,#133);
#58=LINE('',#1286,#134);
#59=LINE('',#1288,#135);
#60=LINE('',#1290,#136);
#61=LINE('',#1294,#137);
#62=LINE('',#1301,#138);
#63=LINE('',#1305,#139);
#64=LINE('',#1307,#140);
#65=LINE('',#1309,#141);
#66=LINE('',#1311,#142);
#67=LINE('',#1315,#143);
#68=LINE('',#1319,#144);
#69=LINE('',#1321,#145);
#70=LINE('',#1323,#146);
#71=LINE('',#1327,#147);
#72=LINE('',#1331,#148);
#73=LINE('',#1333,#149);
#74=LINE('',#1335,#150);
#75=LINE('',#1339,#151);
#76=LINE('',#1346,#152);
#77=LINE('',#1350,#153);
#78=LINE('',#1352,#154);
#79=LINE('',#1354,#155);
#80=LINE('',#1356,#156);
#81=LINE('',#1360,#157);
#82=LINE('',#1364,#158);
#83=LINE('',#1366,#159);
#84=LINE('',#1368,#160);
#85=LINE('',#1372,#161);
#86=LINE('',#1376,#162);
#87=LINE('',#1378,#163);
#88=LINE('',#1380,#164);
#89=LINE('',#1384,#165);
#90=LINE('',#1388,#166);
#91=LINE('',#1391,#167);
#92=LINE('',#1393,#168);
#93=LINE('',#1395,#169);
#94=LINE('',#1397,#170);
#95=LINE('',#1399,#171);
#96=LINE('',#1401,#172);
#97=LINE('',#1403,#173);
#98=LINE('',#1405,#174);
#99=LINE('',#1407,#175);
#100=LINE('',#1409,#176);
#101=LINE('',#1410,#177);
#102=LINE('',#1412,#178);
#103=LINE('',#1413,#179);
#104=LINE('',#1415,#180);
#105=LINE('',#1416,#181);
#106=LINE('',#1418,#182);
#107=LINE('',#1419,#183);
#108=LINE('',#1441,#184);
#109=LINE('',#1442,#185);
#110=VECTOR('',#964,1.);
#111=VECTOR('',#967,1.);
#112=VECTOR('',#970,1.);
#113=VECTOR('',#971,1.);
#114=VECTOR('',#972,1.);
#115=VECTOR('',#977,1.);
#116=VECTOR('',#982,1.);
#117=VECTOR('',#983,1.);
#118=VECTOR('',#984,1.);
#119=VECTOR('',#989,1.);
#120=VECTOR('',#994,1.);
#121=VECTOR('',#995,1.);
#122=VECTOR('',#996,1.);
#123=VECTOR('',#1001,1.);
#124=VECTOR('',#1008,1.);
#125=VECTOR('',#1011,1.);
#126=VECTOR('',#1014,1.);
#127=VECTOR('',#1015,1.);
#128=VECTOR('',#1016,1.);
#129=VECTOR('',#1021,1.);
#130=VECTOR('',#1026,1.);
#131=VECTOR('',#1027,1.);
#132=VECTOR('',#1028,1.);
#133=VECTOR('',#1033,1.);
#134=VECTOR('',#1038,1.);
#135=VECTOR('',#1039,1.);
#136=VECTOR('',#1040,1.);
#137=VECTOR('',#1045,1.);
#138=VECTOR('',#1052,1.);
#139=VECTOR('',#1055,1.);
#140=VECTOR('',#1058,1.);
#141=VECTOR('',#1059,1.);
#142=VECTOR('',#1060,1.);
#143=VECTOR('',#1065,1.);
#144=VECTOR('',#1070,1.);
#145=VECTOR('',#1071,1.);
#146=VECTOR('',#1072,1.);
#147=VECTOR('',#1077,1.);
#148=VECTOR('',#1082,1.);
#149=VECTOR('',#1083,1.);
#150=VECTOR('',#1084,1.);
#151=VECTOR('',#1089,1.);
#152=VECTOR('',#1096,1.);
#153=VECTOR('',#1099,1.);
#154=VECTOR('',#1102,1.);
#155=VECTOR('',#1103,1.);
#156=VECTOR('',#1104,1.);
#157=VECTOR('',#1109,1.);
#158=VECTOR('',#1114,1.);
#159=VECTOR('',#1115,1.);
#160=VECTOR('',#1116,1.);
#161=VECTOR('',#1121,1.);
#162=VECTOR('',#1126,1.);
#163=VECTOR('',#1127,1.);
#164=VECTOR('',#1128,1.);
#165=VECTOR('',#1133,1.);
#166=VECTOR('',#1138,1.);
#167=VECTOR('',#1139,1.);
#168=VECTOR('',#1140,1.);
#169=VECTOR('',#1141,1.);
#170=VECTOR('',#1144,1.);
#171=VECTOR('',#1145,1.);
#172=VECTOR('',#1146,1.);
#173=VECTOR('',#1149,1.);
#174=VECTOR('',#1150,1.);
#175=VECTOR('',#1151,1.);
#176=VECTOR('',#1154,1.);
#177=VECTOR('',#1155,1.);
#178=VECTOR('',#1158,1.);
#179=VECTOR('',#1159,1.);
#180=VECTOR('',#1162,1.);
#181=VECTOR('',#1163,1.);
#182=VECTOR('',#1166,1.);
#183=VECTOR('',#1167,1.);
#184=VECTOR('',#1194,1.);
#185=VECTOR('',#1195,1.);
#186=ORIENTED_EDGE('',*,*,#422,.F.);
#187=ORIENTED_EDGE('',*,*,#423,.F.);
#188=ORIENTED_EDGE('',*,*,#424,.T.);
#189=ORIENTED_EDGE('',*,*,#425,.T.);
#190=ORIENTED_EDGE('',*,*,#426,.T.);
#191=ORIENTED_EDGE('',*,*,#427,.F.);
#192=ORIENTED_EDGE('',*,*,#428,.F.);
#193=ORIENTED_EDGE('',*,*,#423,.T.);
#194=ORIENTED_EDGE('',*,*,#429,.F.);
#195=ORIENTED_EDGE('',*,*,#430,.F.);
#196=ORIENTED_EDGE('',*,*,#431,.T.);
#197=ORIENTED_EDGE('',*,*,#427,.T.);
#198=ORIENTED_EDGE('',*,*,#432,.T.);
#199=ORIENTED_EDGE('',*,*,#433,.F.);
#200=ORIENTED_EDGE('',*,*,#434,.F.);
#201=ORIENTED_EDGE('',*,*,#430,.T.);
#202=ORIENTED_EDGE('',*,*,#435,.F.);
#203=ORIENTED_EDGE('',*,*,#436,.F.);
#204=ORIENTED_EDGE('',*,*,#437,.T.);
#205=ORIENTED_EDGE('',*,*,#433,.T.);
#206=ORIENTED_EDGE('',*,*,#438,.F.);
#207=ORIENTED_EDGE('',*,*,#439,.F.);
#208=ORIENTED_EDGE('',*,*,#440,.T.);
#209=ORIENTED_EDGE('',*,*,#436,.T.);
#210=ORIENTED_EDGE('',*,*,#441,.F.);
#211=ORIENTED_EDGE('',*,*,#442,.F.);
#212=ORIENTED_EDGE('',*,*,#443,.T.);
#213=ORIENTED_EDGE('',*,*,#439,.T.);
#214=ORIENTED_EDGE('',*,*,#444,.F.);
#215=ORIENTED_EDGE('',*,*,#445,.F.);
#216=ORIENTED_EDGE('',*,*,#446,.T.);
#217=ORIENTED_EDGE('',*,*,#447,.T.);
#218=ORIENTED_EDGE('',*,*,#448,.T.);
#219=ORIENTED_EDGE('',*,*,#449,.F.);
#220=ORIENTED_EDGE('',*,*,#450,.F.);
#221=ORIENTED_EDGE('',*,*,#445,.T.);
#222=ORIENTED_EDGE('',*,*,#451,.F.);
#223=ORIENTED_EDGE('',*,*,#452,.F.);
#224=ORIENTED_EDGE('',*,*,#453,.T.);
#225=ORIENTED_EDGE('',*,*,#449,.T.);
#226=ORIENTED_EDGE('',*,*,#454,.T.);
#227=ORIENTED_EDGE('',*,*,#455,.F.);
#228=ORIENTED_EDGE('',*,*,#456,.F.);
#229=ORIENTED_EDGE('',*,*,#452,.T.);
#230=ORIENTED_EDGE('',*,*,#457,.F.);
#231=ORIENTED_EDGE('',*,*,#458,.F.);
#232=ORIENTED_EDGE('',*,*,#459,.T.);
#233=ORIENTED_EDGE('',*,*,#455,.T.);
#234=ORIENTED_EDGE('',*,*,#460,.F.);
#235=ORIENTED_EDGE('',*,*,#461,.F.);
#236=ORIENTED_EDGE('',*,*,#462,.T.);
#237=ORIENTED_EDGE('',*,*,#458,.T.);
#238=ORIENTED_EDGE('',*,*,#463,.F.);
#239=ORIENTED_EDGE('',*,*,#464,.F.);
#240=ORIENTED_EDGE('',*,*,#465,.T.);
#241=ORIENTED_EDGE('',*,*,#461,.T.);
#242=ORIENTED_EDGE('',*,*,#466,.F.);
#243=ORIENTED_EDGE('',*,*,#467,.F.);
#244=ORIENTED_EDGE('',*,*,#468,.T.);
#245=ORIENTED_EDGE('',*,*,#469,.T.);
#246=ORIENTED_EDGE('',*,*,#470,.T.);
#247=ORIENTED_EDGE('',*,*,#471,.F.);
#248=ORIENTED_EDGE('',*,*,#472,.F.);
#249=ORIENTED_EDGE('',*,*,#467,.T.);
#250=ORIENTED_EDGE('',*,*,#473,.F.);
#251=ORIENTED_EDGE('',*,*,#474,.F.);
#252=ORIENTED_EDGE('',*,*,#475,.T.);
#253=ORIENTED_EDGE('',*,*,#471,.T.);
#254=ORIENTED_EDGE('',*,*,#476,.T.);
#255=ORIENTED_EDGE('',*,*,#477,.F.);
#256=ORIENTED_EDGE('',*,*,#478,.F.);
#257=ORIENTED_EDGE('',*,*,#474,.T.);
#258=ORIENTED_EDGE('',*,*,#479,.F.);
#259=ORIENTED_EDGE('',*,*,#480,.F.);
#260=ORIENTED_EDGE('',*,*,#481,.T.);
#261=ORIENTED_EDGE('',*,*,#477,.T.);
#262=ORIENTED_EDGE('',*,*,#482,.F.);
#263=ORIENTED_EDGE('',*,*,#483,.F.);
#264=ORIENTED_EDGE('',*,*,#484,.T.);
#265=ORIENTED_EDGE('',*,*,#480,.T.);
#266=ORIENTED_EDGE('',*,*,#485,.F.);
#267=ORIENTED_EDGE('',*,*,#486,.F.);
#268=ORIENTED_EDGE('',*,*,#487,.T.);
#269=ORIENTED_EDGE('',*,*,#483,.T.);
#270=ORIENTED_EDGE('',*,*,#488,.F.);
#271=ORIENTED_EDGE('',*,*,#489,.F.);
#272=ORIENTED_EDGE('',*,*,#490,.T.);
#273=ORIENTED_EDGE('',*,*,#491,.T.);
#274=ORIENTED_EDGE('',*,*,#492,.T.);
#275=ORIENTED_EDGE('',*,*,#493,.F.);
#276=ORIENTED_EDGE('',*,*,#494,.F.);
#277=ORIENTED_EDGE('',*,*,#489,.T.);
#278=ORIENTED_EDGE('',*,*,#495,.F.);
#279=ORIENTED_EDGE('',*,*,#496,.F.);
#280=ORIENTED_EDGE('',*,*,#497,.T.);
#281=ORIENTED_EDGE('',*,*,#493,.T.);
#282=ORIENTED_EDGE('',*,*,#498,.T.);
#283=ORIENTED_EDGE('',*,*,#499,.F.);
#284=ORIENTED_EDGE('',*,*,#500,.F.);
#285=ORIENTED_EDGE('',*,*,#496,.T.);
#286=ORIENTED_EDGE('',*,*,#501,.F.);
#287=ORIENTED_EDGE('',*,*,#502,.F.);
#288=ORIENTED_EDGE('',*,*,#503,.T.);
#289=ORIENTED_EDGE('',*,*,#499,.T.);
#290=ORIENTED_EDGE('',*,*,#504,.F.);
#291=ORIENTED_EDGE('',*,*,#505,.F.);
#292=ORIENTED_EDGE('',*,*,#506,.T.);
#293=ORIENTED_EDGE('',*,*,#502,.T.);
#294=ORIENTED_EDGE('',*,*,#507,.F.);
#295=ORIENTED_EDGE('',*,*,#508,.F.);
#296=ORIENTED_EDGE('',*,*,#509,.T.);
#297=ORIENTED_EDGE('',*,*,#505,.T.);
#298=ORIENTED_EDGE('',*,*,#510,.F.);
#299=ORIENTED_EDGE('',*,*,#511,.F.);
#300=ORIENTED_EDGE('',*,*,#512,.T.);
#301=ORIENTED_EDGE('',*,*,#513,.T.);
#302=ORIENTED_EDGE('',*,*,#514,.T.);
#303=ORIENTED_EDGE('',*,*,#515,.F.);
#304=ORIENTED_EDGE('',*,*,#516,.F.);
#305=ORIENTED_EDGE('',*,*,#511,.T.);
#306=ORIENTED_EDGE('',*,*,#517,.T.);
#307=ORIENTED_EDGE('',*,*,#518,.F.);
#308=ORIENTED_EDGE('',*,*,#519,.F.);
#309=ORIENTED_EDGE('',*,*,#515,.T.);
#310=ORIENTED_EDGE('',*,*,#520,.F.);
#311=ORIENTED_EDGE('',*,*,#425,.F.);
#312=ORIENTED_EDGE('',*,*,#521,.T.);
#313=ORIENTED_EDGE('',*,*,#442,.T.);
#314=ORIENTED_EDGE('',*,*,#522,.F.);
#315=ORIENTED_EDGE('',*,*,#447,.F.);
#316=ORIENTED_EDGE('',*,*,#523,.T.);
#317=ORIENTED_EDGE('',*,*,#464,.T.);
#318=ORIENTED_EDGE('',*,*,#524,.F.);
#319=ORIENTED_EDGE('',*,*,#469,.F.);
#320=ORIENTED_EDGE('',*,*,#525,.T.);
#321=ORIENTED_EDGE('',*,*,#486,.T.);
#322=ORIENTED_EDGE('',*,*,#526,.F.);
#323=ORIENTED_EDGE('',*,*,#491,.F.);
#324=ORIENTED_EDGE('',*,*,#527,.T.);
#325=ORIENTED_EDGE('',*,*,#508,.T.);
#326=ORIENTED_EDGE('',*,*,#528,.T.);
#327=ORIENTED_EDGE('',*,*,#529,.F.);
#328=ORIENTED_EDGE('',*,*,#530,.T.);
#329=ORIENTED_EDGE('',*,*,#531,.F.);
#330=ORIENTED_EDGE('',*,*,#532,.T.);
#331=ORIENTED_EDGE('',*,*,#533,.F.);
#332=ORIENTED_EDGE('',*,*,#534,.T.);
#333=ORIENTED_EDGE('',*,*,#535,.F.);
#334=ORIENTED_EDGE('',*,*,#536,.F.);
#335=ORIENTED_EDGE('',*,*,#513,.F.);
#336=ORIENTED_EDGE('',*,*,#537,.T.);
#337=ORIENTED_EDGE('',*,*,#518,.T.);
#338=ORIENTED_EDGE('',*,*,#538,.T.);
#339=ORIENTED_EDGE('',*,*,#539,.F.);
#340=ORIENTED_EDGE('',*,*,#512,.F.);
#341=ORIENTED_EDGE('',*,*,#516,.T.);
#342=ORIENTED_EDGE('',*,*,#519,.T.);
#343=ORIENTED_EDGE('',*,*,#537,.F.);
#344=ORIENTED_EDGE('',*,*,#534,.F.);
#345=ORIENTED_EDGE('',*,*,#532,.F.);
#346=ORIENTED_EDGE('',*,*,#530,.F.);
#347=ORIENTED_EDGE('',*,*,#528,.F.);
#348=ORIENTED_EDGE('',*,*,#490,.F.);
#349=ORIENTED_EDGE('',*,*,#494,.T.);
#350=ORIENTED_EDGE('',*,*,#497,.F.);
#351=ORIENTED_EDGE('',*,*,#500,.T.);
#352=ORIENTED_EDGE('',*,*,#503,.F.);
#353=ORIENTED_EDGE('',*,*,#506,.F.);
#354=ORIENTED_EDGE('',*,*,#509,.F.);
#355=ORIENTED_EDGE('',*,*,#527,.F.);
#356=ORIENTED_EDGE('',*,*,#468,.F.);
#357=ORIENTED_EDGE('',*,*,#472,.T.);
#358=ORIENTED_EDGE('',*,*,#475,.F.);
#359=ORIENTED_EDGE('',*,*,#478,.T.);
#360=ORIENTED_EDGE('',*,*,#481,.F.);
#361=ORIENTED_EDGE('',*,*,#484,.F.);
#362=ORIENTED_EDGE('',*,*,#487,.F.);
#363=ORIENTED_EDGE('',*,*,#525,.F.);
#364=ORIENTED_EDGE('',*,*,#446,.F.);
#365=ORIENTED_EDGE('',*,*,#450,.T.);
#366=ORIENTED_EDGE('',*,*,#453,.F.);
#367=ORIENTED_EDGE('',*,*,#456,.T.);
#368=ORIENTED_EDGE('',*,*,#459,.F.);
#369=ORIENTED_EDGE('',*,*,#462,.F.);
#370=ORIENTED_EDGE('',*,*,#465,.F.);
#371=ORIENTED_EDGE('',*,*,#523,.F.);
#372=ORIENTED_EDGE('',*,*,#424,.F.);
#373=ORIENTED_EDGE('',*,*,#428,.T.);
#374=ORIENTED_EDGE('',*,*,#431,.F.);
#375=ORIENTED_EDGE('',*,*,#434,.T.);
#376=ORIENTED_EDGE('',*,*,#437,.F.);
#377=ORIENTED_EDGE('',*,*,#440,.F.);
#378=ORIENTED_EDGE('',*,*,#443,.F.);
#379=ORIENTED_EDGE('',*,*,#521,.F.);
#380=ORIENTED_EDGE('',*,*,#538,.F.);
#381=ORIENTED_EDGE('',*,*,#510,.T.);
#382=ORIENTED_EDGE('',*,*,#536,.T.);
#383=ORIENTED_EDGE('',*,*,#517,.F.);
#384=ORIENTED_EDGE('',*,*,#514,.F.);
#385=ORIENTED_EDGE('',*,*,#535,.T.);
#386=ORIENTED_EDGE('',*,*,#533,.T.);
#387=ORIENTED_EDGE('',*,*,#531,.T.);
#388=ORIENTED_EDGE('',*,*,#529,.T.);
#389=ORIENTED_EDGE('',*,*,#488,.T.);
#390=ORIENTED_EDGE('',*,*,#526,.T.);
#391=ORIENTED_EDGE('',*,*,#507,.T.);
#392=ORIENTED_EDGE('',*,*,#504,.T.);
#393=ORIENTED_EDGE('',*,*,#501,.T.);
#394=ORIENTED_EDGE('',*,*,#498,.F.);
#395=ORIENTED_EDGE('',*,*,#495,.T.);
#396=ORIENTED_EDGE('',*,*,#492,.F.);
#397=ORIENTED_EDGE('',*,*,#466,.T.);
#398=ORIENTED_EDGE('',*,*,#524,.T.);
#399=ORIENTED_EDGE('',*,*,#485,.T.);
#400=ORIENTED_EDGE('',*,*,#482,.T.);
#401=ORIENTED_EDGE('',*,*,#479,.T.);
#402=ORIENTED_EDGE('',*,*,#476,.F.);
#403=ORIENTED_EDGE('',*,*,#473,.T.);
#404=ORIENTED_EDGE('',*,*,#470,.F.);
#405=ORIENTED_EDGE('',*,*,#444,.T.);
#406=ORIENTED_EDGE('',*,*,#522,.T.);
#407=ORIENTED_EDGE('',*,*,#463,.T.);
#408=ORIENTED_EDGE('',*,*,#460,.T.);
#409=ORIENTED_EDGE('',*,*,#457,.T.);
#410=ORIENTED_EDGE('',*,*,#454,.F.);
#411=ORIENTED_EDGE('',*,*,#451,.T.);
#412=ORIENTED_EDGE('',*,*,#448,.F.);
#413=ORIENTED_EDGE('',*,*,#422,.T.);
#414=ORIENTED_EDGE('',*,*,#520,.T.);
#415=ORIENTED_EDGE('',*,*,#441,.T.);
#416=ORIENTED_EDGE('',*,*,#438,.T.);
#417=ORIENTED_EDGE('',*,*,#435,.T.);
#418=ORIENTED_EDGE('',*,*,#432,.F.);
#419=ORIENTED_EDGE('',*,*,#429,.T.);
#420=ORIENTED_EDGE('',*,*,#426,.F.);
#421=ORIENTED_EDGE('',*,*,#539,.T.);
#422=EDGE_CURVE('',#540,#541,#622,.T.);
#423=EDGE_CURVE('',#542,#540,#34,.T.);
#424=EDGE_CURVE('',#542,#543,#623,.T.);
#425=EDGE_CURVE('',#543,#541,#35,.T.);
#426=EDGE_CURVE('',#540,#544,#36,.T.);
#427=EDGE_CURVE('',#545,#544,#37,.T.);
#428=EDGE_CURVE('',#542,#545,#38,.T.);
#429=EDGE_CURVE('',#546,#544,#624,.T.);
#430=EDGE_CURVE('',#547,#546,#39,.T.);
#431=EDGE_CURVE('',#547,#545,#625,.T.);
#432=EDGE_CURVE('',#546,#548,#40,.T.);
#433=EDGE_CURVE('',#549,#548,#41,.T.);
#434=EDGE_CURVE('',#547,#549,#42,.T.);
#435=EDGE_CURVE('',#550,#548,#626,.T.);
#436=EDGE_CURVE('',#551,#550,#43,.T.);
#437=EDGE_CURVE('',#551,#549,#627,.T.);
#438=EDGE_CURVE('',#552,#550,#44,.T.);
#439=EDGE_CURVE('',#553,#552,#45,.T.);
#440=EDGE_CURVE('',#553,#551,#46,.T.);
#441=EDGE_CURVE('',#554,#552,#628,.T.);
#442=EDGE_CURVE('',#555,#554,#47,.T.);
#443=EDGE_CURVE('',#555,#553,#629,.T.);
#444=EDGE_CURVE('',#556,#557,#630,.T.);
#445=EDGE_CURVE('',#558,#556,#48,.T.);
#446=EDGE_CURVE('',#558,#559,#631,.T.);
#447=EDGE_CURVE('',#559,#557,#49,.T.);
#448=EDGE_CURVE('',#556,#560,#50,.T.);
#449=EDGE_CURVE('',#561,#560,#51,.T.);
#450=EDGE_CURVE('',#558,#561,#52,.T.);
#451=EDGE_CURVE('',#562,#560,#632,.T.);
#452=EDGE_CURVE('',#563,#562,#53,.T.);
#453=EDGE_CURVE('',#563,#561,#633,.T.);
#454=EDGE_CURVE('',#562,#564,#54,.T.);
#455=EDGE_CURVE('',#565,#564,#55,.T.);
#456=EDGE_CURVE('',#563,#565,#56,.T.);
#457=EDGE_CURVE('',#566,#564,#634,.T.);
#458=EDGE_CURVE('',#567,#566,#57,.T.);
#459=EDGE_CURVE('',#567,#565,#635,.T.);
#460=EDGE_CURVE('',#568,#566,#58,.T.);
#461=EDGE_CURVE('',#569,#568,#59,.T.);
#462=EDGE_CURVE('',#569,#567,#60,.T.);
#463=EDGE_CURVE('',#570,#568,#636,.T.);
#464=EDGE_CURVE('',#571,#570,#61,.T.);
#465=EDGE_CURVE('',#571,#569,#637,.T.);
#466=EDGE_CURVE('',#572,#573,#638,.T.);
#467=EDGE_CURVE('',#574,#572,#62,.T.);
#468=EDGE_CURVE('',#574,#575,#639,.T.);
#469=EDGE_CURVE('',#575,#573,#63,.T.);
#470=EDGE_CURVE('',#572,#576,#64,.T.);
#471=EDGE_CURVE('',#577,#576,#65,.T.);
#472=EDGE_CURVE('',#574,#577,#66,.T.);
#473=EDGE_CURVE('',#578,#576,#640,.T.);
#474=EDGE_CURVE('',#579,#578,#67,.T.);
#475=EDGE_CURVE('',#579,#577,#641,.T.);
#476=EDGE_CURVE('',#578,#580,#68,.T.);
#477=EDGE_CURVE('',#581,#580,#69,.T.);
#478=EDGE_CURVE('',#579,#581,#70,.T.);
#479=EDGE_CURVE('',#582,#580,#642,.T.);
#480=EDGE_CURVE('',#583,#582,#71,.T.);
#481=EDGE_CURVE('',#583,#581,#643,.T.);
#482=EDGE_CURVE('',#584,#582,#72,.T.);
#483=EDGE_CURVE('',#585,#584,#73,.T.);
#484=EDGE_CURVE('',#585,#583,#74,.T.);
#485=EDGE_CURVE('',#586,#584,#644,.T.);
#486=EDGE_CURVE('',#587,#586,#75,.T.);
#487=EDGE_CURVE('',#587,#585,#645,.T.);
#488=EDGE_CURVE('',#588,#589,#646,.T.);
#489=EDGE_CURVE('',#590,#588,#76,.T.);
#490=EDGE_CURVE('',#590,#591,#647,.T.);
#491=EDGE_CURVE('',#591,#589,#77,.T.);
#492=EDGE_CURVE('',#588,#592,#78,.T.);
#493=EDGE_CURVE('',#593,#592,#79,.T.);
#494=EDGE_CURVE('',#590,#593,#80,.T.);
#495=EDGE_CURVE('',#594,#592,#648,.T.);
#496=EDGE_CURVE('',#595,#594,#81,.T.);
#497=EDGE_CURVE('',#595,#593,#649,.T.);
#498=EDGE_CURVE('',#594,#596,#82,.T.);
#499=EDGE_CURVE('',#597,#596,#83,.T.);
#500=EDGE_CURVE('',#595,#597,#84,.T.);
#501=EDGE_CURVE('',#598,#596,#650,.T.);
#502=EDGE_CURVE('',#599,#598,#85,.T.);
#503=EDGE_CURVE('',#599,#597,#651,.T.);
#504=EDGE_CURVE('',#600,#598,#86,.T.);
#505=EDGE_CURVE('',#601,#600,#87,.T.);
#506=EDGE_CURVE('',#601,#599,#88,.T.);
#507=EDGE_CURVE('',#602,#600,#652,.T.);
#508=EDGE_CURVE('',#603,#602,#89,.T.);
#509=EDGE_CURVE('',#603,#601,#653,.T.);
#510=EDGE_CURVE('',#604,#605,#90,.T.);
#511=EDGE_CURVE('',#606,#604,#91,.T.);
#512=EDGE_CURVE('',#606,#607,#92,.T.);
#513=EDGE_CURVE('',#607,#605,#93,.T.);
#514=EDGE_CURVE('',#604,#608,#94,.T.);
#515=EDGE_CURVE('',#609,#608,#95,.T.);
#516=EDGE_CURVE('',#606,#609,#96,.T.);
#517=EDGE_CURVE('',#608,#610,#97,.T.);
#518=EDGE_CURVE('',#611,#610,#98,.T.);
#519=EDGE_CURVE('',#609,#611,#99,.T.);
#520=EDGE_CURVE('',#541,#554,#100,.T.);
#521=EDGE_CURVE('',#543,#555,#101,.T.);
#522=EDGE_CURVE('',#557,#570,#102,.T.);
#523=EDGE_CURVE('',#559,#571,#103,.T.);
#524=EDGE_CURVE('',#573,#586,#104,.T.);
#525=EDGE_CURVE('',#575,#587,#105,.T.);
#526=EDGE_CURVE('',#589,#602,#106,.T.);
#527=EDGE_CURVE('',#591,#603,#107,.T.);
#528=EDGE_CURVE('',#612,#612,#654,.T.);
#529=EDGE_CURVE('',#613,#613,#655,.T.);
#530=EDGE_CURVE('',#614,#614,#656,.T.);
#531=EDGE_CURVE('',#615,#615,#657,.T.);
#532=EDGE_CURVE('',#616,#616,#658,.T.);
#533=EDGE_CURVE('',#617,#617,#659,.T.);
#534=EDGE_CURVE('',#618,#618,#660,.T.);
#535=EDGE_CURVE('',#619,#619,#661,.T.);
#536=EDGE_CURVE('',#605,#610,#108,.T.);
#537=EDGE_CURVE('',#607,#611,#109,.T.);
#538=EDGE_CURVE('',#620,#620,#662,.T.);
#539=EDGE_CURVE('',#621,#621,#663,.T.);
#540=VERTEX_POINT('',#1209);
#541=VERTEX_POINT('',#1210);
#542=VERTEX_POINT('',#1212);
#543=VERTEX_POINT('',#1214);
#544=VERTEX_POINT('',#1218);
#545=VERTEX_POINT('',#1220);
#546=VERTEX_POINT('',#1224);
#547=VERTEX_POINT('',#1226);
#548=VERTEX_POINT('',#1230);
#549=VERTEX_POINT('',#1232);
#550=VERTEX_POINT('',#1236);
#551=VERTEX_POINT('',#1238);
#552=VERTEX_POINT('',#1242);
#553=VERTEX_POINT('',#1244);
#554=VERTEX_POINT('',#1248);
#555=VERTEX_POINT('',#1250);
#556=VERTEX_POINT('',#1254);
#557=VERTEX_POINT('',#1255);
#558=VERTEX_POINT('',#1257);
#559=VERTEX_POINT('',#1259);
#560=VERTEX_POINT('',#1263);
#561=VERTEX_POINT('',#1265);
#562=VERTEX_POINT('',#1269);
#563=VERTEX_POINT('',#1271);
#564=VERTEX_POINT('',#1275);
#565=VERTEX_POINT('',#1277);
#566=VERTEX_POINT('',#1281);
#567=VERTEX_POINT('',#1283);
#568=VERTEX_POINT('',#1287);
#569=VERTEX_POINT('',#1289);
#570=VERTEX_POINT('',#1293);
#571=VERTEX_POINT('',#1295);
#572=VERTEX_POINT('',#1299);
#573=VERTEX_POINT('',#1300);
#574=VERTEX_POINT('',#1302);
#575=VERTEX_POINT('',#1304);
#576=VERTEX_POINT('',#1308);
#577=VERTEX_POINT('',#1310);
#578=VERTEX_POINT('',#1314);
#579=VERTEX_POINT('',#1316);
#580=VERTEX_POINT('',#1320);
#581=VERTEX_POINT('',#1322);
#582=VERTEX_POINT('',#1326);
#583=VERTEX_POINT('',#1328);
#584=VERTEX_POINT('',#1332);
#585=VERTEX_POINT('',#1334);
#586=VERTEX_POINT('',#1338);
#587=VERTEX_POINT('',#1340);
#588=VERTEX_POINT('',#1344);
#589=VERTEX_POINT('',#1345);
#590=VERTEX_POINT('',#1347);
#591=VERTEX_POINT('',#1349);
#592=VERTEX_POINT('',#1353);
#593=VERTEX_POINT('',#1355);
#594=VERTEX_POINT('',#1359);
#595=VERTEX_POINT('',#1361);
#596=VERTEX_POINT('',#1365);
#597=VERTEX_POINT('',#1367);
#598=VERTEX_POINT('',#1371);
#599=VERTEX_POINT('',#1373);
#600=VERTEX_POINT('',#1377);
#601=VERTEX_POINT('',#1379);
#602=VERTEX_POINT('',#1383);
#603=VERTEX_POINT('',#1385);
#604=VERTEX_POINT('',#1389);
#605=VERTEX_POINT('',#1390);
#606=VERTEX_POINT('',#1392);
#607=VERTEX_POINT('',#1394);
#608=VERTEX_POINT('',#1398);
#609=VERTEX_POINT('',#1400);
#610=VERTEX_POINT('',#1404);
#611=VERTEX_POINT('',#1406);
#612=VERTEX_POINT('',#1422);
#613=VERTEX_POINT('',#1424);
#614=VERTEX_POINT('',#1427);
#615=VERTEX_POINT('',#1429);
#616=VERTEX_POINT('',#1432);
#617=VERTEX_POINT('',#1434);
#618=VERTEX_POINT('',#1437);
#619=VERTEX_POINT('',#1439);
#620=VERTEX_POINT('',#1445);
#621=VERTEX_POINT('',#1447);
#622=CIRCLE('',#874,0.0005);
#623=CIRCLE('',#875,0.0005);
#624=CIRCLE('',#878,0.0005);
#625=CIRCLE('',#879,0.0005);
#626=CIRCLE('',#882,0.0005);
#627=CIRCLE('',#883,0.0005);
#628=CIRCLE('',#886,0.0005);
#629=CIRCLE('',#887,0.0005);
#630=CIRCLE('',#889,0.0005);
#631=CIRCLE('',#890,0.0005);
#632=CIRCLE('',#893,0.0005);
#633=CIRCLE('',#894,0.0005);
#634=CIRCLE('',#897,0.0005);
#635=CIRCLE('',#898,0.0005);
#636=CIRCLE('',#901,0.0005);
#637=CIRCLE('',#902,0.0005);
#638=CIRCLE('',#904,0.0005);
#639=CIRCLE('',#905,0.0005);
#640=CIRCLE('',#908,0.0005);
#641=CIRCLE('',#909,0.0005);
#642=CIRCLE('',#912,0.0005);
#643=CIRCLE('',#913,0.0005);
#644=CIRCLE('',#916,0.0005);
#645=CIRCLE('',#917,0.0005);
#646=CIRCLE('',#919,0.0005);
#647=CIRCLE('',#920,0.0005);
#648=CIRCLE('',#923,0.0005);
#649=CIRCLE('',#924,0.0005);
#650=CIRCLE('',#927,0.0005);
#651=CIRCLE('',#928,0.0005);
#652=CIRCLE('',#931,0.0005);
#653=CIRCLE('',#932,0.0005);
#654=CIRCLE('',#941,0.00145);
#655=CIRCLE('',#942,0.00145);
#656=CIRCLE('',#944,0.00145);
#657=CIRCLE('',#945,0.00145);
#658=CIRCLE('',#947,0.00145);
#659=CIRCLE('',#948,0.00145);
#660=CIRCLE('',#950,0.0014499160040389);
#661=CIRCLE('',#951,0.0014499160040389);
#662=CIRCLE('',#954,0.0035);
#663=CIRCLE('',#955,0.0035);
#664=EDGE_LOOP('',(#186,#187,#188,#189));
#665=EDGE_LOOP('',(#190,#191,#192,#193));
#666=EDGE_LOOP('',(#194,#195,#196,#197));
#667=EDGE_LOOP('',(#198,#199,#200,#201));
#668=EDGE_LOOP('',(#202,#203,#204,#205));
#669=EDGE_LOOP('',(#206,#207,#208,#209));
#670=EDGE_LOOP('',(#210,#211,#212,#213));
#671=EDGE_LOOP('',(#214,#215,#216,#217));
#672=EDGE_LOOP('',(#218,#219,#220,#221));
#673=EDGE_LOOP('',(#222,#223,#224,#225));
#674=EDGE_LOOP('',(#226,#227,#228,#229));
#675=EDGE_LOOP('',(#230,#231,#232,#233));
#676=EDGE_LOOP('',(#234,#235,#236,#237));
#677=EDGE_LOOP('',(#238,#239,#240,#241));
#678=EDGE_LOOP('',(#242,#243,#244,#245));
#679=EDGE_LOOP('',(#246,#247,#248,#249));
#680=EDGE_LOOP('',(#250,#251,#252,#253));
#681=EDGE_LOOP('',(#254,#255,#256,#257));
#682=EDGE_LOOP('',(#258,#259,#260,#261));
#683=EDGE_LOOP('',(#262,#263,#264,#265));
#684=EDGE_LOOP('',(#266,#267,#268,#269));
#685=EDGE_LOOP('',(#270,#271,#272,#273));
#686=EDGE_LOOP('',(#274,#275,#276,#277));
#687=EDGE_LOOP('',(#278,#279,#280,#281));
#688=EDGE_LOOP('',(#282,#283,#284,#285));
#689=EDGE_LOOP('',(#286,#287,#288,#289));
#690=EDGE_LOOP('',(#290,#291,#292,#293));
#691=EDGE_LOOP('',(#294,#295,#296,#297));
#692=EDGE_LOOP('',(#298,#299,#300,#301));
#693=EDGE_LOOP('',(#302,#303,#304,#305));
#694=EDGE_LOOP('',(#306,#307,#308,#309));
#695=EDGE_LOOP('',(#310,#311,#312,#313));
#696=EDGE_LOOP('',(#314,#315,#316,#317));
#697=EDGE_LOOP('',(#318,#319,#320,#321));
#698=EDGE_LOOP('',(#322,#323,#324,#325));
#699=EDGE_LOOP('',(#326));
#700=EDGE_LOOP('',(#327));
#701=EDGE_LOOP('',(#328));
#702=EDGE_LOOP('',(#329));
#703=EDGE_LOOP('',(#330));
#704=EDGE_LOOP('',(#331));
#705=EDGE_LOOP('',(#332));
#706=EDGE_LOOP('',(#333));
#707=EDGE_LOOP('',(#334,#335,#336,#337));
#708=EDGE_LOOP('',(#338));
#709=EDGE_LOOP('',(#339));
#710=EDGE_LOOP('',(#340,#341,#342,#343));
#711=EDGE_LOOP('',(#344));
#712=EDGE_LOOP('',(#345));
#713=EDGE_LOOP('',(#346));
#714=EDGE_LOOP('',(#347));
#715=EDGE_LOOP('',(#348,#349,#350,#351,#352,#353,#354,#355));
#716=EDGE_LOOP('',(#356,#357,#358,#359,#360,#361,#362,#363));
#717=EDGE_LOOP('',(#364,#365,#366,#367,#368,#369,#370,#371));
#718=EDGE_LOOP('',(#372,#373,#374,#375,#376,#377,#378,#379));
#719=EDGE_LOOP('',(#380));
#720=EDGE_LOOP('',(#381,#382,#383,#384));
#721=EDGE_LOOP('',(#385));
#722=EDGE_LOOP('',(#386));
#723=EDGE_LOOP('',(#387));
#724=EDGE_LOOP('',(#388));
#725=EDGE_LOOP('',(#389,#390,#391,#392,#393,#394,#395,#396));
#726=EDGE_LOOP('',(#397,#398,#399,#400,#401,#402,#403,#404));
#727=EDGE_LOOP('',(#405,#406,#407,#408,#409,#410,#411,#412));
#728=EDGE_LOOP('',(#413,#414,#415,#416,#417,#418,#419,#420));
#729=EDGE_LOOP('',(#421));
#730=FACE_BOUND('',#664,.T.);
#731=FACE_BOUND('',#665,.T.);
#732=FACE_BOUND('',#666,.T.);
#733=FACE_BOUND('',#667,.T.);
#734=FACE_BOUND('',#668,.T.);
#735=FACE_BOUND('',#669,.T.);
#736=FACE_BOUND('',#670,.T.);
#737=FACE_BOUND('',#671,.T.);
#738=FACE_BOUND('',#672,.T.);
#739=FACE_BOUND('',#673,.T.);
#740=FACE_BOUND('',#674,.T.);
#741=FACE_BOUND('',#675,.T.);
#742=FACE_BOUND('',#676,.T.);
#743=FACE_BOUND('',#677,.T.);
#744=FACE_BOUND('',#678,.T.);
#745=FACE_BOUND('',#679,.T.);
#746=FACE_BOUND('',#680,.T.);
#747=FACE_BOUND('',#681,.T.);
#748=FACE_BOUND('',#682,.T.);
#749=FACE_BOUND('',#683,.T.);
#750=FACE_BOUND('',#684,.T.);
#751=FACE_BOUND('',#685,.T.);
#752=FACE_BOUND('',#686,.T.);
#753=FACE_BOUND('',#687,.T.);
#754=FACE_BOUND('',#688,.T.);
#755=FACE_BOUND('',#689,.T.);
#756=FACE_BOUND('',#690,.T.);
#757=FACE_BOUND('',#691,.T.);
#758=FACE_BOUND('',#692,.T.);
#759=FACE_BOUND('',#693,.T.);
#760=FACE_BOUND('',#694,.T.);
#761=FACE_BOUND('',#695,.T.);
#762=FACE_BOUND('',#696,.T.);
#763=FACE_BOUND('',#697,.T.);
#764=FACE_BOUND('',#698,.T.);
#765=FACE_BOUND('',#699,.T.);
#766=FACE_BOUND('',#700,.T.);
#767=FACE_BOUND('',#701,.T.);
#768=FACE_BOUND('',#702,.T.);
#769=FACE_BOUND('',#703,.T.);
#770=FACE_BOUND('',#704,.T.);
#771=FACE_BOUND('',#705,.T.);
#772=FACE_BOUND('',#706,.T.);
#773=FACE_BOUND('',#707,.T.);
#774=FACE_BOUND('',#708,.T.);
#775=FACE_BOUND('',#709,.T.);
#776=FACE_BOUND('',#710,.T.);
#777=FACE_BOUND('',#711,.T.);
#778=FACE_BOUND('',#712,.T.);
#779=FACE_BOUND('',#713,.T.);
#780=FACE_BOUND('',#714,.T.);
#781=FACE_BOUND('',#715,.T.);
#782=FACE_BOUND('',#716,.T.);
#783=FACE_BOUND('',#717,.T.);
#784=FACE_BOUND('',#718,.T.);
#785=FACE_BOUND('',#719,.T.);
#786=FACE_BOUND('',#720,.T.);
#787=FACE_BOUND('',#721,.T.);
#788=FACE_BOUND('',#722,.T.);
#789=FACE_BOUND('',#723,.T.);
#790=FACE_BOUND('',#724,.T.);
#791=FACE_BOUND('',#725,.T.);
#792=FACE_BOUND('',#726,.T.);
#793=FACE_BOUND('',#727,.T.);
#794=FACE_BOUND('',#728,.T.);
#795=FACE_BOUND('',#729,.T.);
#796=CYLINDRICAL_SURFACE('',#873,0.0005);
#797=CYLINDRICAL_SURFACE('',#877,0.0005);
#798=CYLINDRICAL_SURFACE('',#881,0.0005);
#799=CYLINDRICAL_SURFACE('',#885,0.0005);
#800=CYLINDRICAL_SURFACE('',#888,0.0005);
#801=CYLINDRICAL_SURFACE('',#892,0.0005);
#802=CYLINDRICAL_SURFACE('',#896,0.0005);
#803=CYLINDRICAL_SURFACE('',#900,0.0005);
#804=CYLINDRICAL_SURFACE('',#903,0.0005);
#805=CYLINDRICAL_SURFACE('',#907,0.0005);
#806=CYLINDRICAL_SURFACE('',#911,0.0005);
#807=CYLINDRICAL_SURFACE('',#915,0.0005);
#808=CYLINDRICAL_SURFACE('',#918,0.0005);
#809=CYLINDRICAL_SURFACE('',#922,0.0005);
#810=CYLINDRICAL_SURFACE('',#926,0.0005);
#811=CYLINDRICAL_SURFACE('',#930,0.0005);
#812=CYLINDRICAL_SURFACE('',#940,0.00145);
#813=CYLINDRICAL_SURFACE('',#943,0.00145);
#814=CYLINDRICAL_SURFACE('',#946,0.00145);
#815=CYLINDRICAL_SURFACE('',#949,0.0014499160040389);
#816=CYLINDRICAL_SURFACE('',#953,0.0035);
#817=ADVANCED_FACE('',(#730),#796,.F.);
#818=ADVANCED_FACE('',(#731),#12,.F.);
#819=ADVANCED_FACE('',(#732),#797,.F.);
#820=ADVANCED_FACE('',(#733),#13,.F.);
#821=ADVANCED_FACE('',(#734),#798,.F.);
#822=ADVANCED_FACE('',(#735),#14,.T.);
#823=ADVANCED_FACE('',(#736),#799,.F.);
#824=ADVANCED_FACE('',(#737),#800,.F.);
#825=ADVANCED_FACE('',(#738),#15,.F.);
#826=ADVANCED_FACE('',(#739),#801,.F.);
#827=ADVANCED_FACE('',(#740),#16,.F.);
#828=ADVANCED_FACE('',(#741),#802,.F.);
#829=ADVANCED_FACE('',(#742),#17,.T.);
#830=ADVANCED_FACE('',(#743),#803,.F.);
#831=ADVANCED_FACE('',(#744),#804,.F.);
#832=ADVANCED_FACE('',(#745),#18,.F.);
#833=ADVANCED_FACE('',(#746),#805,.F.);
#834=ADVANCED_FACE('',(#747),#19,.F.);
#835=ADVANCED_FACE('',(#748),#806,.F.);
#836=ADVANCED_FACE('',(#749),#20,.T.);
#837=ADVANCED_FACE('',(#750),#807,.F.);
#838=ADVANCED_FACE('',(#751),#808,.F.);
#839=ADVANCED_FACE('',(#752),#21,.F.);
#840=ADVANCED_FACE('',(#753),#809,.F.);
#841=ADVANCED_FACE('',(#754),#22,.F.);
#842=ADVANCED_FACE('',(#755),#810,.F.);
#843=ADVANCED_FACE('',(#756),#23,.T.);
#844=ADVANCED_FACE('',(#757),#811,.F.);
#845=ADVANCED_FACE('',(#758),#24,.T.);
#846=ADVANCED_FACE('',(#759),#25,.F.);
#847=ADVANCED_FACE('',(#760),#26,.F.);
#848=ADVANCED_FACE('',(#761),#27,.T.);
#849=ADVANCED_FACE('',(#762),#28,.T.);
#850=ADVANCED_FACE('',(#763),#29,.T.);
#851=ADVANCED_FACE('',(#764),#30,.T.);
#852=ADVANCED_FACE('',(#765,#766),#812,.F.);
#853=ADVANCED_FACE('',(#767,#768),#813,.F.);
#854=ADVANCED_FACE('',(#769,#770),#814,.F.);
#855=ADVANCED_FACE('',(#771,#772),#815,.F.);
#856=ADVANCED_FACE('',(#773),#31,.T.);
#857=ADVANCED_FACE('',(#774,#775),#816,.F.);
#858=ADVANCED_FACE('',(#776,#777,#778,#779,#780,#781,#782,#783,#784,#785),
#32,.T.);
#859=ADVANCED_FACE('',(#786,#787,#788,#789,#790,#791,#792,#793,#794,#795),
#33,.F.);
#860=CLOSED_SHELL('',(#817,#818,#819,#820,#821,#822,#823,#824,#825,#826,
#827,#828,#829,#830,#831,#832,#833,#834,#835,#836,#837,#838,#839,#840,#841,
#842,#843,#844,#845,#846,#847,#848,#849,#850,#851,#852,#853,#854,#855,#856,
#857,#858,#859));
#861=STYLED_ITEM('',(#862),#869);
#862=PRESENTATION_STYLE_ASSIGNMENT((#863));
#863=SURFACE_STYLE_USAGE(.BOTH.,#864);
#864=SURFACE_SIDE_STYLE('',(#865));
#865=SURFACE_STYLE_FILL_AREA(#866);
#866=FILL_AREA_STYLE('',(#867));
#867=FILL_AREA_STYLE_COLOUR('',#868);
#868=COLOUR_RGB('',0.647058823529412,0.647058823529412,0.647058823529412);
#869=MANIFOLD_SOLID_BREP('Part 2',#860);
#870=SHAPE_DEFINITION_REPRESENTATION(#1456,#871);
#871=SHAPE_REPRESENTATION('Part 2',(#872),#1451);
#872=AXIS2_PLACEMENT_3D('',#1206,#958,#959);
#873=AXIS2_PLACEMENT_3D('',#1207,#960,#961);
#874=AXIS2_PLACEMENT_3D('',#1208,#962,#963);
#875=AXIS2_PLACEMENT_3D('',#1213,#965,#966);
#876=AXIS2_PLACEMENT_3D('',#1216,#968,#969);
#877=AXIS2_PLACEMENT_3D('',#1222,#973,#974);
#878=AXIS2_PLACEMENT_3D('',#1223,#975,#976);
#879=AXIS2_PLACEMENT_3D('',#1227,#978,#979);
#880=AXIS2_PLACEMENT_3D('',#1228,#980,#981);
#881=AXIS2_PLACEMENT_3D('',#1234,#985,#986);
#882=AXIS2_PLACEMENT_3D('',#1235,#987,#988);
#883=AXIS2_PLACEMENT_3D('',#1239,#990,#991);
#884=AXIS2_PLACEMENT_3D('',#1240,#992,#993);
#885=AXIS2_PLACEMENT_3D('',#1246,#997,#998);
#886=AXIS2_PLACEMENT_3D('',#1247,#999,#1000);
#887=AXIS2_PLACEMENT_3D('',#1251,#1002,#1003);
#888=AXIS2_PLACEMENT_3D('',#1252,#1004,#1005);
#889=AXIS2_PLACEMENT_3D('',#1253,#1006,#1007);
#890=AXIS2_PLACEMENT_3D('',#1258,#1009,#1010);
#891=AXIS2_PLACEMENT_3D('',#1261,#1012,#1013);
#892=AXIS2_PLACEMENT_3D('',#1267,#1017,#1018);
#893=AXIS2_PLACEMENT_3D('',#1268,#1019,#1020);
#894=AXIS2_PLACEMENT_3D('',#1272,#1022,#1023);
#895=AXIS2_PLACEMENT_3D('',#1273,#1024,#1025);
#896=AXIS2_PLACEMENT_3D('',#1279,#1029,#1030);
#897=AXIS2_PLACEMENT_3D('',#1280,#1031,#1032);
#898=AXIS2_PLACEMENT_3D('',#1284,#1034,#1035);
#899=AXIS2_PLACEMENT_3D('',#1285,#1036,#1037);
#900=AXIS2_PLACEMENT_3D('',#1291,#1041,#1042);
#901=AXIS2_PLACEMENT_3D('',#1292,#1043,#1044);
#902=AXIS2_PLACEMENT_3D('',#1296,#1046,#1047);
#903=AXIS2_PLACEMENT_3D('',#1297,#1048,#1049);
#904=AXIS2_PLACEMENT_3D('',#1298,#1050,#1051);
#905=AXIS2_PLACEMENT_3D('',#1303,#1053,#1054);
#906=AXIS2_PLACEMENT_3D('',#1306,#1056,#1057);
#907=AXIS2_PLACEMENT_3D('',#1312,#1061,#1062);
#908=AXIS2_PLACEMENT_3D('',#1313,#1063,#1064);
#909=AXIS2_PLACEMENT_3D('',#1317,#1066,#1067);
#910=AXIS2_PLACEMENT_3D('',#1318,#1068,#1069);
#911=AXIS2_PLACEMENT_3D('',#1324,#1073,#1074);
#912=AXIS2_PLACEMENT_3D('',#1325,#1075,#1076);
#913=AXIS2_PLACEMENT_3D('',#1329,#1078,#1079);
#914=AXIS2_PLACEMENT_3D('',#1330,#1080,#1081);
#915=AXIS2_PLACEMENT_3D('',#1336,#1085,#1086);
#916=AXIS2_PLACEMENT_3D('',#1337,#1087,#1088);
#917=AXIS2_PLACEMENT_3D('',#1341,#1090,#1091);
#918=AXIS2_PLACEMENT_3D('',#1342,#1092,#1093);
#919=AXIS2_PLACEMENT_3D('',#1343,#1094,#1095);
#920=AXIS2_PLACEMENT_3D('',#1348,#1097,#1098);
#921=AXIS2_PLACEMENT_3D('',#1351,#1100,#1101);
#922=AXIS2_PLACEMENT_3D('',#1357,#1105,#1106);
#923=AXIS2_PLACEMENT_3D('',#1358,#1107,#1108);
#924=AXIS2_PLACEMENT_3D('',#1362,#1110,#1111);
#925=AXIS2_PLACEMENT_3D('',#1363,#1112,#1113);
#926=AXIS2_PLACEMENT_3D('',#1369,#1117,#1118);
#927=AXIS2_PLACEMENT_3D('',#1370,#1119,#1120);
#928=AXIS2_PLACEMENT_3D('',#1374,#1122,#1123);
#929=AXIS2_PLACEMENT_3D('',#1375,#1124,#1125);
#930=AXIS2_PLACEMENT_3D('',#1381,#1129,#1130);
#931=AXIS2_PLACEMENT_3D('',#1382,#1131,#1132);
#932=AXIS2_PLACEMENT_3D('',#1386,#1134,#1135);
#933=AXIS2_PLACEMENT_3D('',#1387,#1136,#1137);
#934=AXIS2_PLACEMENT_3D('',#1396,#1142,#1143);
#935=AXIS2_PLACEMENT_3D('',#1402,#1147,#1148);
#936=AXIS2_PLACEMENT_3D('',#1408,#1152,#1153);
#937=AXIS2_PLACEMENT_3D('',#1411,#1156,#1157);
#938=AXIS2_PLACEMENT_3D('',#1414,#1160,#1161);
#939=AXIS2_PLACEMENT_3D('',#1417,#1164,#1165);
#940=AXIS2_PLACEMENT_3D('',#1420,#1168,#1169);
#941=AXIS2_PLACEMENT_3D('',#1421,#1170,#1171);
#942=AXIS2_PLACEMENT_3D('',#1423,#1172,#1173);
#943=AXIS2_PLACEMENT_3D('',#1425,#1174,#1175);
#944=AXIS2_PLACEMENT_3D('',#1426,#1176,#1177);
#945=AXIS2_PLACEMENT_3D('',#1428,#1178,#1179);
#946=AXIS2_PLACEMENT_3D('',#1430,#1180,#1181);
#947=AXIS2_PLACEMENT_3D('',#1431,#1182,#1183);
#948=AXIS2_PLACEMENT_3D('',#1433,#1184,#1185);
#949=AXIS2_PLACEMENT_3D('',#1435,#1186,#1187);
#950=AXIS2_PLACEMENT_3D('',#1436,#1188,#1189);
#951=AXIS2_PLACEMENT_3D('',#1438,#1190,#1191);
#952=AXIS2_PLACEMENT_3D('',#1440,#1192,#1193);
#953=AXIS2_PLACEMENT_3D('',#1443,#1196,#1197);
#954=AXIS2_PLACEMENT_3D('',#1444,#1198,#1199);
#955=AXIS2_PLACEMENT_3D('',#1446,#1200,#1201);
#956=AXIS2_PLACEMENT_3D('',#1448,#1202,#1203);
#957=AXIS2_PLACEMENT_3D('',#1449,#1204,#1205);
#958=DIRECTION('',(0.,0.,1.));
#959=DIRECTION('',(1.,0.,0.));
#960=DIRECTION('',(0.,0.,-1.));
#961=DIRECTION('',(-1.,0.,0.));
#962=DIRECTION('',(0.,0.,1.));
#963=DIRECTION('',(1.,0.,0.));
#964=DIRECTION('',(0.,0.,-1.));
#965=DIRECTION('',(0.,0.,1.));
#966=DIRECTION('',(1.,0.,0.));
#967=DIRECTION('',(0.,0.,-1.));
#968=DIRECTION('',(0.,1.,0.));
#969=DIRECTION('',(0.,0.,1.));
#970=DIRECTION('',(1.,0.,0.));
#971=DIRECTION('',(0.,0.,-1.));
#972=DIRECTION('',(1.,0.,0.));
#973=DIRECTION('',(0.,0.,-1.));
#974=DIRECTION('',(-1.,0.,0.));
#975=DIRECTION('',(0.,0.,1.));
#976=DIRECTION('',(1.,0.,0.));
#977=DIRECTION('',(0.,0.,-1.));
#978=DIRECTION('',(0.,0.,1.));
#979=DIRECTION('',(1.,0.,0.));
#980=DIRECTION('',(1.,0.,0.));
#981=DIRECTION('',(0.,0.,-1.));
#982=DIRECTION('',(0.,-1.,0.));
#983=DIRECTION('',(0.,0.,-1.));
#984=DIRECTION('',(0.,-1.,0.));
#985=DIRECTION('',(0.,0.,-1.));
#986=DIRECTION('',(-1.,0.,0.));
#987=DIRECTION('',(0.,0.,1.));
#988=DIRECTION('',(1.,0.,0.));
#989=DIRECTION('',(0.,0.,-1.));
#990=DIRECTION('',(0.,0.,1.));
#991=DIRECTION('',(1.,0.,0.));
#992=DIRECTION('',(0.,1.,0.));
#993=DIRECTION('',(0.,0.,1.));
#994=DIRECTION('',(1.,0.,0.));
#995=DIRECTION('',(0.,0.,-1.));
#996=DIRECTION('',(1.,0.,0.));
#997=DIRECTION('',(0.,0.,-1.));
#998=DIRECTION('',(-1.,0.,0.));
#999=DIRECTION('',(0.,0.,1.));
#1000=DIRECTION('',(1.,0.,0.));
#1001=DIRECTION('',(0.,0.,-1.));
#1002=DIRECTION('',(0.,0.,1.));
#1003=DIRECTION('',(1.,0.,0.));
#1004=DIRECTION('',(0.,0.,-1.));
#1005=DIRECTION('',(-1.,0.,0.));
#1006=DIRECTION('',(0.,0.,1.));
#1007=DIRECTION('',(1.,0.,0.));
#1008=DIRECTION('',(0.,0.,-1.));
#1009=DIRECTION('',(0.,0.,1.));
#1010=DIRECTION('',(1.,0.,0.));
#1011=DIRECTION('',(0.,0.,-1.));
#1012=DIRECTION('',(0.,1.,0.));
#1013=DIRECTION('',(0.,0.,1.));
#1014=DIRECTION('',(1.,0.,0.));
#1015=DIRECTION('',(0.,0.,-1.));
#1016=DIRECTION('',(1.,0.,0.));
#1017=DIRECTION('',(0.,0.,-1.));
#1018=DIRECTION('',(-1.,0.,0.));
#1019=DIRECTION('',(0.,0.,1.));
#1020=DIRECTION('',(1.,0.,0.));
#1021=DIRECTION('',(0.,0.,-1.));
#1022=DIRECTION('',(0.,0.,1.));
#1023=DIRECTION('',(1.,0.,0.));
#1024=DIRECTION('',(1.,0.,0.));
#1025=DIRECTION('',(0.,0.,-1.));
#1026=DIRECTION('',(0.,-1.,0.));
#1027=DIRECTION('',(0.,0.,-1.));
#1028=DIRECTION('',(0.,-1.,0.));
#1029=DIRECTION('',(0.,0.,-1.));
#1030=DIRECTION('',(-1.,0.,0.));
#1031=DIRECTION('',(0.,0.,1.));
#1032=DIRECTION('',(1.,0.,0.));
#1033=DIRECTION('',(0.,0.,-1.));
#1034=DIRECTION('',(0.,0.,1.));
#1035=DIRECTION('',(1.,0.,0.));
#1036=DIRECTION('',(0.,1.,0.));
#1037=DIRECTION('',(0.,0.,1.));
#1038=DIRECTION('',(1.,0.,0.));
#1039=DIRECTION('',(0.,0.,-1.));
#1040=DIRECTION('',(1.,0.,0.));
#1041=DIRECTION('',(0.,0.,-1.));
#1042=DIRECTION('',(-1.,0.,0.));
#1043=DIRECTION('',(0.,0.,1.));
#1044=DIRECTION('',(1.,0.,0.));
#1045=DIRECTION('',(0.,0.,-1.));
#1046=DIRECTION('',(0.,0.,1.));
#1047=DIRECTION('',(1.,0.,0.));
#1048=DIRECTION('',(0.,0.,-1.));
#1049=DIRECTION('',(-1.,0.,0.));
#1050=DIRECTION('',(0.,0.,1.));
#1051=DIRECTION('',(1.,0.,0.));
#1052=DIRECTION('',(0.,0.,-1.));
#1053=DIRECTION('',(0.,0.,1.));
#1054=DIRECTION('',(1.,0.,0.));
#1055=DIRECTION('',(0.,0.,-1.));
#1056=DIRECTION('',(0.,1.,0.));
#1057=DIRECTION('',(0.,0.,1.));
#1058=DIRECTION('',(1.,0.,0.));
#1059=DIRECTION('',(0.,0.,-1.));
#1060=DIRECTION('',(1.,0.,0.));
#1061=DIRECTION('',(0.,0.,-1.));
#1062=DIRECTION('',(-1.,0.,0.));
#1063=DIRECTION('',(0.,0.,1.));
#1064=DIRECTION('',(1.,0.,0.));
#1065=DIRECTION('',(0.,0.,-1.));
#1066=DIRECTION('',(0.,0.,1.));
#1067=DIRECTION('',(1.,0.,0.));
#1068=DIRECTION('',(1.,0.,0.));
#1069=DIRECTION('',(0.,0.,-1.));
#1070=DIRECTION('',(0.,-1.,0.));
#1071=DIRECTION('',(0.,0.,-1.));
#1072=DIRECTION('',(0.,-1.,0.));
#1073=DIRECTION('',(0.,0.,-1.));
#1074=DIRECTION('',(-1.,0.,0.));
#1075=DIRECTION('',(0.,0.,1.));
#1076=DIRECTION('',(1.,0.,0.));
#1077=DIRECTION('',(0.,0.,-1.));
#1078=DIRECTION('',(0.,0.,1.));
#1079=DIRECTION('',(1.,0.,0.));
#1080=DIRECTION('',(0.,1.,0.));
#1081=DIRECTION('',(0.,0.,1.));
#1082=DIRECTION('',(1.,0.,0.));
#1083=DIRECTION('',(0.,0.,-1.));
#1084=DIRECTION('',(1.,0.,0.));
#1085=DIRECTION('',(0.,0.,-1.));
#1086=DIRECTION('',(-1.,0.,0.));
#1087=DIRECTION('',(0.,0.,1.));
#1088=DIRECTION('',(1.,0.,0.));
#1089=DIRECTION('',(0.,0.,-1.));
#1090=DIRECTION('',(0.,0.,1.));
#1091=DIRECTION('',(1.,0.,0.));
#1092=DIRECTION('',(0.,0.,-1.));
#1093=DIRECTION('',(-1.,0.,0.));
#1094=DIRECTION('',(0.,0.,1.));
#1095=DIRECTION('',(1.,0.,0.));
#1096=DIRECTION('',(0.,0.,-1.));
#1097=DIRECTION('',(0.,0.,1.));
#1098=DIRECTION('',(1.,0.,0.));
#1099=DIRECTION('',(0.,0.,-1.));
#1100=DIRECTION('',(0.,1.,0.));
#1101=DIRECTION('',(0.,0.,1.));
#1102=DIRECTION('',(1.,0.,0.));
#1103=DIRECTION('',(0.,0.,-1.));
#1104=DIRECTION('',(1.,0.,0.));
#1105=DIRECTION('',(0.,0.,-1.));
#1106=DIRECTION('',(-1.,0.,0.));
#1107=DIRECTION('',(0.,0.,1.));
#1108=DIRECTION('',(1.,0.,0.));
#1109=DIRECTION('',(0.,0.,-1.));
#1110=DIRECTION('',(0.,0.,1.));
#1111=DIRECTION('',(1.,0.,0.));
#1112=DIRECTION('',(1.,0.,0.));
#1113=DIRECTION('',(0.,0.,-1.));
#1114=DIRECTION('',(0.,-1.,0.));
#1115=DIRECTION('',(0.,0.,-1.));
#1116=DIRECTION('',(0.,-1.,0.));
#1117=DIRECTION('',(0.,0.,-1.));
#1118=DIRECTION('',(-1.,0.,0.));
#1119=DIRECTION('',(0.,0.,1.));
#1120=DIRECTION('',(1.,0.,0.));
#1121=DIRECTION('',(0.,0.,-1.));
#1122=DIRECTION('',(0.,0.,1.));
#1123=DIRECTION('',(1.,0.,0.));
#1124=DIRECTION('',(0.,1.,0.));
#1125=DIRECTION('',(0.,0.,1.));
#1126=DIRECTION('',(1.,0.,0.));
#1127=DIRECTION('',(0.,0.,-1.));
#1128=DIRECTION('',(1.,0.,0.));
#1129=DIRECTION('',(0.,0.,-1.));
#1130=DIRECTION('',(-1.,0.,0.));
#1131=DIRECTION('',(0.,0.,1.));
#1132=DIRECTION('',(1.,0.,0.));
#1133=DIRECTION('',(0.,0.,-1.));
#1134=DIRECTION('',(0.,0.,1.));
#1135=DIRECTION('',(1.,0.,0.));
#1136=DIRECTION('',(0.,1.,0.));
#1137=DIRECTION('',(0.,0.,1.));
#1138=DIRECTION('',(1.,0.,0.));
#1139=DIRECTION('',(0.,0.,-1.));
#1140=DIRECTION('',(1.,0.,0.));
#1141=DIRECTION('',(0.,0.,-1.));
#1142=DIRECTION('',(1.,0.,0.));
#1143=DIRECTION('',(0.,0.,-1.));
#1144=DIRECTION('',(0.,-1.,0.));
#1145=DIRECTION('',(0.,0.,-1.));
#1146=DIRECTION('',(0.,-1.,0.));
#1147=DIRECTION('',(0.,1.,0.));
#1148=DIRECTION('',(0.,0.,1.));
#1149=DIRECTION('',(1.,0.,0.));
#1150=DIRECTION('',(0.,0.,-1.));
#1151=DIRECTION('',(1.,0.,0.));
#1152=DIRECTION('',(1.,0.,0.));
#1153=DIRECTION('',(0.,0.,-1.));
#1154=DIRECTION('',(0.,-1.,0.));
#1155=DIRECTION('',(0.,-1.,0.));
#1156=DIRECTION('',(1.,0.,0.));
#1157=DIRECTION('',(0.,0.,-1.));
#1158=DIRECTION('',(0.,-1.,0.));
#1159=DIRECTION('',(0.,-1.,0.));
#1160=DIRECTION('',(1.,0.,0.));
#1161=DIRECTION('',(0.,0.,-1.));
#1162=DIRECTION('',(0.,-1.,0.));
#1163=DIRECTION('',(0.,-1.,0.));
#1164=DIRECTION('',(1.,0.,0.));
#1165=DIRECTION('',(0.,0.,-1.));
#1166=DIRECTION('',(0.,-1.,0.));
#1167=DIRECTION('',(0.,-1.,0.));
#1168=DIRECTION('',(0.,0.,-1.));
#1169=DIRECTION('',(-1.,0.,0.));
#1170=DIRECTION('',(0.,0.,1.));
#1171=DIRECTION('',(1.,0.,0.));
#1172=DIRECTION('',(0.,0.,1.));
#1173=DIRECTION('',(1.,0.,0.));
#1174=DIRECTION('',(0.,0.,-1.));
#1175=DIRECTION('',(-1.,0.,0.));
#1176=DIRECTION('',(0.,0.,1.));
#1177=DIRECTION('',(1.,0.,0.));
#1178=DIRECTION('',(0.,0.,1.));
#1179=DIRECTION('',(1.,0.,0.));
#1180=DIRECTION('',(0.,0.,-1.));
#1181=DIRECTION('',(-1.,0.,0.));
#1182=DIRECTION('',(0.,0.,1.));
#1183=DIRECTION('',(1.,0.,0.));
#1184=DIRECTION('',(0.,0.,1.));
#1185=DIRECTION('',(1.,0.,0.));
#1186=DIRECTION('',(0.,0.,-1.));
#1187=DIRECTION('',(-1.,0.,0.));
#1188=DIRECTION('',(0.,0.,1.));
#1189=DIRECTION('',(1.,0.,0.));
#1190=DIRECTION('',(0.,0.,1.));
#1191=DIRECTION('',(1.,0.,0.));
#1192=DIRECTION('',(1.,0.,0.));
#1193=DIRECTION('',(0.,0.,-1.));
#1194=DIRECTION('',(0.,-1.,0.));
#1195=DIRECTION('',(0.,-1.,0.));
#1196=DIRECTION('',(0.,0.,-1.));
#1197=DIRECTION('',(-1.,0.,0.));
#1198=DIRECTION('',(0.,0.,1.));
#1199=DIRECTION('',(1.,0.,0.));
#1200=DIRECTION('',(0.,0.,1.));
#1201=DIRECTION('',(1.,0.,0.));
#1202=DIRECTION('',(0.,0.,1.));
#1203=DIRECTION('',(1.,0.,0.));
#1204=DIRECTION('',(0.,0.,1.));
#1205=DIRECTION('',(1.,0.,0.));
#1206=CARTESIAN_POINT('',(0.,0.,0.));
#1207=CARTESIAN_POINT('',(0.00156224640011788,0.016569172231853,0.016));
#1208=CARTESIAN_POINT('',(0.00156224640011788,0.016569172231853,0.013));
#1209=CARTESIAN_POINT('',(0.00156224640011788,0.017069172231853,0.013));
#1210=CARTESIAN_POINT('',(0.00106224640011788,0.016569172231853,0.013));
#1211=CARTESIAN_POINT('',(0.00156224640011788,0.017069172231853,0.016));
#1212=CARTESIAN_POINT('',(0.00156224640011788,0.017069172231853,0.016));
#1213=CARTESIAN_POINT('',(0.00156224640011788,0.016569172231853,0.016));
#1214=CARTESIAN_POINT('',(0.00106224640011788,0.016569172231853,0.016));
#1215=CARTESIAN_POINT('',(0.00106224640011788,0.016569172231853,0.016));
#1216=CARTESIAN_POINT('',(0.00806224640011788,0.017069172231853,0.016));
#1217=CARTESIAN_POINT('',(0.00806224640011788,0.017069172231853,0.013));
#1218=CARTESIAN_POINT('',(0.0145622464001179,0.017069172231853,0.013));
#1219=CARTESIAN_POINT('',(0.0145622464001179,0.017069172231853,0.016));
#1220=CARTESIAN_POINT('',(0.0145622464001179,0.017069172231853,0.016));
#1221=CARTESIAN_POINT('',(0.00806224640011788,0.017069172231853,0.016));
#1222=CARTESIAN_POINT('',(0.0145622464001179,0.016569172231853,0.016));
#1223=CARTESIAN_POINT('',(0.0145622464001179,0.016569172231853,0.013));
#1224=CARTESIAN_POINT('',(0.0150622464001179,0.016569172231853,0.013));
#1225=CARTESIAN_POINT('',(0.0150622464001179,0.016569172231853,0.016));
#1226=CARTESIAN_POINT('',(0.0150622464001179,0.016569172231853,0.016));
#1227=CARTESIAN_POINT('',(0.0145622464001179,0.016569172231853,0.016));
#1228=CARTESIAN_POINT('',(0.0150622464001179,0.010069172231853,0.016));
#1229=CARTESIAN_POINT('',(0.0150622464001179,0.010069172231853,0.013));
#1230=CARTESIAN_POINT('',(0.0150622464001179,0.00356917223185301,0.013));
#1231=CARTESIAN_POINT('',(0.0150622464001179,0.00356917223185301,0.016));
#1232=CARTESIAN_POINT('',(0.0150622464001179,0.00356917223185301,0.016));
#1233=CARTESIAN_POINT('',(0.0150622464001179,0.010069172231853,0.016));
#1234=CARTESIAN_POINT('',(0.0145622464001179,0.00356917223185302,0.016));
#1235=CARTESIAN_POINT('',(0.0145622464001179,0.00356917223185302,0.013));
#1236=CARTESIAN_POINT('',(0.0145622464001179,0.00306917223185301,0.013));
#1237=CARTESIAN_POINT('',(0.0145622464001179,0.00306917223185301,0.016));
#1238=CARTESIAN_POINT('',(0.0145622464001179,0.00306917223185301,0.016));
#1239=CARTESIAN_POINT('',(0.0145622464001179,0.00356917223185302,0.016));
#1240=CARTESIAN_POINT('',(0.00806224640011788,0.00306917223185301,0.016));
#1241=CARTESIAN_POINT('',(0.00806224640011788,0.00306917223185301,0.013));
#1242=CARTESIAN_POINT('',(0.00156224640011788,0.00306917223185301,0.013));
#1243=CARTESIAN_POINT('',(0.00156224640011788,0.00306917223185301,0.016));
#1244=CARTESIAN_POINT('',(0.00156224640011788,0.00306917223185301,0.016));
#1245=CARTESIAN_POINT('',(0.00806224640011788,0.00306917223185301,0.016));
#1246=CARTESIAN_POINT('',(0.00156224640011788,0.00356917223185301,0.016));
#1247=CARTESIAN_POINT('',(0.00156224640011788,0.00356917223185301,0.013));
#1248=CARTESIAN_POINT('',(0.00106224640011788,0.00356917223185301,0.013));
#1249=CARTESIAN_POINT('',(0.00106224640011788,0.00356917223185301,0.016));
#1250=CARTESIAN_POINT('',(0.00106224640011788,0.00356917223185301,0.016));
#1251=CARTESIAN_POINT('',(0.00156224640011788,0.00356917223185301,0.016));
#1252=CARTESIAN_POINT('',(-0.0174877535998821,0.016569172231853,0.016));
#1253=CARTESIAN_POINT('',(-0.0174877535998821,0.016569172231853,0.013));
#1254=CARTESIAN_POINT('',(-0.0174877535998821,0.017069172231853,0.013));
#1255=CARTESIAN_POINT('',(-0.0179877535998821,0.016569172231853,0.013));
#1256=CARTESIAN_POINT('',(-0.0174877535998821,0.017069172231853,0.016));
#1257=CARTESIAN_POINT('',(-0.0174877535998821,0.017069172231853,0.016));
#1258=CARTESIAN_POINT('',(-0.0174877535998821,0.016569172231853,0.016));
#1259=CARTESIAN_POINT('',(-0.0179877535998821,0.016569172231853,0.016));
#1260=CARTESIAN_POINT('',(-0.0179877535998821,0.016569172231853,0.016));
#1261=CARTESIAN_POINT('',(-0.0109877535998821,0.017069172231853,0.016));
#1262=CARTESIAN_POINT('',(-0.0109877535998821,0.017069172231853,0.013));
#1263=CARTESIAN_POINT('',(-0.00448775359988212,0.017069172231853,0.013));
#1264=CARTESIAN_POINT('',(-0.00448775359988212,0.017069172231853,0.016));
#1265=CARTESIAN_POINT('',(-0.00448775359988212,0.017069172231853,0.016));
#1266=CARTESIAN_POINT('',(-0.0109877535998821,0.017069172231853,0.016));
#1267=CARTESIAN_POINT('',(-0.00448775359988212,0.016569172231853,0.016));
#1268=CARTESIAN_POINT('',(-0.00448775359988212,0.016569172231853,0.013));
#1269=CARTESIAN_POINT('',(-0.00398775359988212,0.016569172231853,0.013));
#1270=CARTESIAN_POINT('',(-0.00398775359988212,0.016569172231853,0.016));
#1271=CARTESIAN_POINT('',(-0.00398775359988212,0.016569172231853,0.016));
#1272=CARTESIAN_POINT('',(-0.00448775359988212,0.016569172231853,0.016));
#1273=CARTESIAN_POINT('',(-0.00398775359988212,0.010069172231853,0.016));
#1274=CARTESIAN_POINT('',(-0.00398775359988212,0.010069172231853,0.013));
#1275=CARTESIAN_POINT('',(-0.00398775359988212,0.00356917223185301,0.013));
#1276=CARTESIAN_POINT('',(-0.00398775359988212,0.00356917223185301,0.016));
#1277=CARTESIAN_POINT('',(-0.00398775359988212,0.00356917223185301,0.016));
#1278=CARTESIAN_POINT('',(-0.00398775359988212,0.010069172231853,0.016));
#1279=CARTESIAN_POINT('',(-0.00448775359988212,0.00356917223185301,0.016));
#1280=CARTESIAN_POINT('',(-0.00448775359988212,0.00356917223185301,0.013));
#1281=CARTESIAN_POINT('',(-0.00448775359988212,0.00306917223185301,0.013));
#1282=CARTESIAN_POINT('',(-0.00448775359988212,0.00306917223185301,0.016));
#1283=CARTESIAN_POINT('',(-0.00448775359988212,0.00306917223185301,0.016));
#1284=CARTESIAN_POINT('',(-0.00448775359988212,0.00356917223185301,0.016));
#1285=CARTESIAN_POINT('',(-0.0109877535998821,0.00306917223185301,0.016));
#1286=CARTESIAN_POINT('',(-0.0109877535998821,0.00306917223185301,0.013));
#1287=CARTESIAN_POINT('',(-0.0174877535998821,0.00306917223185301,0.013));
#1288=CARTESIAN_POINT('',(-0.0174877535998821,0.00306917223185301,0.016));
#1289=CARTESIAN_POINT('',(-0.0174877535998821,0.00306917223185301,0.016));
#1290=CARTESIAN_POINT('',(-0.0109877535998821,0.00306917223185301,0.016));
#1291=CARTESIAN_POINT('',(-0.0174877535998821,0.00356917223185301,0.016));
#1292=CARTESIAN_POINT('',(-0.0174877535998821,0.00356917223185301,0.013));
#1293=CARTESIAN_POINT('',(-0.0179877535998821,0.00356917223185301,0.013));
#1294=CARTESIAN_POINT('',(-0.0179877535998821,0.00356917223185301,0.016));
#1295=CARTESIAN_POINT('',(-0.0179877535998821,0.00356917223185301,0.016));
#1296=CARTESIAN_POINT('',(-0.0174877535998821,0.00356917223185301,0.016));
#1297=CARTESIAN_POINT('',(-0.0365377535998821,0.016569172231853,0.016));
#1298=CARTESIAN_POINT('',(-0.0365377535998821,0.016569172231853,0.013));
#1299=CARTESIAN_POINT('',(-0.0365377535998821,0.017069172231853,0.013));
#1300=CARTESIAN_POINT('',(-0.0370377535998822,0.016569172231853,0.013));
#1301=CARTESIAN_POINT('',(-0.0365377535998821,0.017069172231853,0.016));
#1302=CARTESIAN_POINT('',(-0.0365377535998821,0.017069172231853,0.016));
#1303=CARTESIAN_POINT('',(-0.0365377535998821,0.016569172231853,0.016));
#1304=CARTESIAN_POINT('',(-0.0370377535998822,0.016569172231853,0.016));
#1305=CARTESIAN_POINT('',(-0.0370377535998822,0.016569172231853,0.016));
#1306=CARTESIAN_POINT('',(-0.0300377535998822,0.017069172231853,0.016));
#1307=CARTESIAN_POINT('',(-0.0300377535998822,0.017069172231853,0.013));
#1308=CARTESIAN_POINT('',(-0.0235377535998822,0.017069172231853,0.013));
#1309=CARTESIAN_POINT('',(-0.0235377535998822,0.017069172231853,0.016));
#1310=CARTESIAN_POINT('',(-0.0235377535998822,0.017069172231853,0.016));
#1311=CARTESIAN_POINT('',(-0.0300377535998822,0.017069172231853,0.016));
#1312=CARTESIAN_POINT('',(-0.0235377535998822,0.016569172231853,0.016));
#1313=CARTESIAN_POINT('',(-0.0235377535998822,0.016569172231853,0.013));
#1314=CARTESIAN_POINT('',(-0.0230377535998822,0.016569172231853,0.013));
#1315=CARTESIAN_POINT('',(-0.0230377535998822,0.016569172231853,0.016));
#1316=CARTESIAN_POINT('',(-0.0230377535998822,0.016569172231853,0.016));
#1317=CARTESIAN_POINT('',(-0.0235377535998822,0.016569172231853,0.016));
#1318=CARTESIAN_POINT('',(-0.0230377535998822,0.010069172231853,0.016));
#1319=CARTESIAN_POINT('',(-0.0230377535998822,0.010069172231853,0.013));
#1320=CARTESIAN_POINT('',(-0.0230377535998822,0.00356917223185301,0.013));
#1321=CARTESIAN_POINT('',(-0.0230377535998822,0.00356917223185301,0.016));
#1322=CARTESIAN_POINT('',(-0.0230377535998822,0.00356917223185301,0.016));
#1323=CARTESIAN_POINT('',(-0.0230377535998822,0.010069172231853,0.016));
#1324=CARTESIAN_POINT('',(-0.0235377535998822,0.00356917223185301,0.016));
#1325=CARTESIAN_POINT('',(-0.0235377535998822,0.00356917223185301,0.013));
#1326=CARTESIAN_POINT('',(-0.0235377535998822,0.00306917223185301,0.013));
#1327=CARTESIAN_POINT('',(-0.0235377535998822,0.00306917223185301,0.016));
#1328=CARTESIAN_POINT('',(-0.0235377535998822,0.00306917223185301,0.016));
#1329=CARTESIAN_POINT('',(-0.0235377535998822,0.00356917223185301,0.016));
#1330=CARTESIAN_POINT('',(-0.0300377535998822,0.00306917223185301,0.016));
#1331=CARTESIAN_POINT('',(-0.0300377535998822,0.00306917223185301,0.013));
#1332=CARTESIAN_POINT('',(-0.0365377535998821,0.00306917223185301,0.013));
#1333=CARTESIAN_POINT('',(-0.0365377535998821,0.00306917223185301,0.016));
#1334=CARTESIAN_POINT('',(-0.0365377535998821,0.00306917223185301,0.016));
#1335=CARTESIAN_POINT('',(-0.0300377535998822,0.00306917223185301,0.016));
#1336=CARTESIAN_POINT('',(-0.0365377535998821,0.00356917223185301,0.016));
#1337=CARTESIAN_POINT('',(-0.0365377535998821,0.00356917223185301,0.013));
#1338=CARTESIAN_POINT('',(-0.0370377535998822,0.00356917223185301,0.013));
#1339=CARTESIAN_POINT('',(-0.0370377535998822,0.00356917223185301,0.016));
#1340=CARTESIAN_POINT('',(-0.0370377535998822,0.00356917223185301,0.016));
#1341=CARTESIAN_POINT('',(-0.0365377535998821,0.00356917223185301,0.016));
#1342=CARTESIAN_POINT('',(-0.0174877535998821,0.035619172231853,0.016));
#1343=CARTESIAN_POINT('',(-0.0174877535998821,0.035619172231853,0.013));
#1344=CARTESIAN_POINT('',(-0.0174877535998821,0.036119172231853,0.013));
#1345=CARTESIAN_POINT('',(-0.0179877535998821,0.035619172231853,0.013));
#1346=CARTESIAN_POINT('',(-0.0174877535998821,0.036119172231853,0.016));
#1347=CARTESIAN_POINT('',(-0.0174877535998821,0.036119172231853,0.016));
#1348=CARTESIAN_POINT('',(-0.0174877535998821,0.035619172231853,0.016));
#1349=CARTESIAN_POINT('',(-0.0179877535998821,0.035619172231853,0.016));
#1350=CARTESIAN_POINT('',(-0.0179877535998821,0.035619172231853,0.016));
#1351=CARTESIAN_POINT('',(-0.0109877535998821,0.036119172231853,0.016));
#1352=CARTESIAN_POINT('',(-0.0109877535998821,0.036119172231853,0.013));
#1353=CARTESIAN_POINT('',(-0.00448775359988212,0.036119172231853,0.013));
#1354=CARTESIAN_POINT('',(-0.00448775359988212,0.036119172231853,0.016));
#1355=CARTESIAN_POINT('',(-0.00448775359988212,0.036119172231853,0.016));
#1356=CARTESIAN_POINT('',(-0.0109877535998821,0.036119172231853,0.016));
#1357=CARTESIAN_POINT('',(-0.00448775359988212,0.035619172231853,0.016));
#1358=CARTESIAN_POINT('',(-0.00448775359988212,0.035619172231853,0.013));
#1359=CARTESIAN_POINT('',(-0.00398775359988212,0.035619172231853,0.013));
#1360=CARTESIAN_POINT('',(-0.00398775359988212,0.035619172231853,0.016));
#1361=CARTESIAN_POINT('',(-0.00398775359988212,0.035619172231853,0.016));
#1362=CARTESIAN_POINT('',(-0.00448775359988212,0.035619172231853,0.016));
#1363=CARTESIAN_POINT('',(-0.00398775359988212,0.029119172231853,0.016));
#1364=CARTESIAN_POINT('',(-0.00398775359988212,0.029119172231853,0.013));
#1365=CARTESIAN_POINT('',(-0.00398775359988212,0.022619172231853,0.013));
#1366=CARTESIAN_POINT('',(-0.00398775359988212,0.022619172231853,0.016));
#1367=CARTESIAN_POINT('',(-0.00398775359988212,0.022619172231853,0.016));
#1368=CARTESIAN_POINT('',(-0.00398775359988212,0.029119172231853,0.016));
#1369=CARTESIAN_POINT('',(-0.00448775359988212,0.022619172231853,0.016));
#1370=CARTESIAN_POINT('',(-0.00448775359988212,0.022619172231853,0.013));
#1371=CARTESIAN_POINT('',(-0.00448775359988212,0.022119172231853,0.013));
#1372=CARTESIAN_POINT('',(-0.00448775359988212,0.022119172231853,0.016));
#1373=CARTESIAN_POINT('',(-0.00448775359988212,0.022119172231853,0.016));
#1374=CARTESIAN_POINT('',(-0.00448775359988212,0.022619172231853,0.016));
#1375=CARTESIAN_POINT('',(-0.0109877535998821,0.022119172231853,0.016));
#1376=CARTESIAN_POINT('',(-0.0109877535998821,0.022119172231853,0.013));
#1377=CARTESIAN_POINT('',(-0.0174877535998821,0.022119172231853,0.013));
#1378=CARTESIAN_POINT('',(-0.0174877535998821,0.022119172231853,0.016));
#1379=CARTESIAN_POINT('',(-0.0174877535998821,0.022119172231853,0.016));
#1380=CARTESIAN_POINT('',(-0.0109877535998821,0.022119172231853,0.016));
#1381=CARTESIAN_POINT('',(-0.0174877535998821,0.022619172231853,0.016));
#1382=CARTESIAN_POINT('',(-0.0174877535998821,0.022619172231853,0.013));
#1383=CARTESIAN_POINT('',(-0.0179877535998821,0.022619172231853,0.013));
#1384=CARTESIAN_POINT('',(-0.0179877535998821,0.022619172231853,0.016));
#1385=CARTESIAN_POINT('',(-0.0179877535998821,0.022619172231853,0.016));
#1386=CARTESIAN_POINT('',(-0.0174877535998821,0.022619172231853,0.016));
#1387=CARTESIAN_POINT('',(-0.0110627535998821,0.048744172231853,0.016));
#1388=CARTESIAN_POINT('',(-0.0110627535998821,0.048744172231853,0.013));
#1389=CARTESIAN_POINT('',(-0.0497627535998821,0.048744172231853,0.013));
#1390=CARTESIAN_POINT('',(0.0276372464001179,0.048744172231853,0.013));
#1391=CARTESIAN_POINT('',(-0.0497627535998821,0.048744172231853,0.016));
#1392=CARTESIAN_POINT('',(-0.0497627535998821,0.048744172231853,0.016));
#1393=CARTESIAN_POINT('',(-0.0110627535998821,0.048744172231853,0.016));
#1394=CARTESIAN_POINT('',(0.0276372464001179,0.048744172231853,0.016));
#1395=CARTESIAN_POINT('',(0.0276372464001179,0.048744172231853,0.016));
#1396=CARTESIAN_POINT('',(-0.0497627535998821,0.019544172231853,0.016));
#1397=CARTESIAN_POINT('',(-0.0497627535998821,0.019544172231853,0.013));
#1398=CARTESIAN_POINT('',(-0.0497627535998821,-0.00965582776814699,0.013));
#1399=CARTESIAN_POINT('',(-0.0497627535998821,-0.00965582776814699,0.016));
#1400=CARTESIAN_POINT('',(-0.0497627535998821,-0.00965582776814699,0.016));
#1401=CARTESIAN_POINT('',(-0.0497627535998821,0.019544172231853,0.016));
#1402=CARTESIAN_POINT('',(-0.0110627535998821,-0.00965582776814699,0.016));
#1403=CARTESIAN_POINT('',(-0.0110627535998821,-0.00965582776814699,0.013));
#1404=CARTESIAN_POINT('',(0.0276372464001179,-0.009655827768147,0.013));
#1405=CARTESIAN_POINT('',(0.0276372464001179,-0.009655827768147,0.016));
#1406=CARTESIAN_POINT('',(0.0276372464001179,-0.009655827768147,0.016));
#1407=CARTESIAN_POINT('',(-0.0110627535998821,-0.00965582776814699,0.016));
#1408=CARTESIAN_POINT('',(0.00106224640011788,0.010069172231853,0.016));
#1409=CARTESIAN_POINT('',(0.00106224640011788,0.010069172231853,0.013));
#1410=CARTESIAN_POINT('',(0.00106224640011788,0.010069172231853,0.016));
#1411=CARTESIAN_POINT('',(-0.0179877535998821,0.010069172231853,0.016));
#1412=CARTESIAN_POINT('',(-0.0179877535998821,0.010069172231853,0.013));
#1413=CARTESIAN_POINT('',(-0.0179877535998821,0.010069172231853,0.016));
#1414=CARTESIAN_POINT('',(-0.0370377535998822,0.010069172231853,0.016));
#1415=CARTESIAN_POINT('',(-0.0370377535998822,0.010069172231853,0.013));
#1416=CARTESIAN_POINT('',(-0.0370377535998822,0.010069172231853,0.016));
#1417=CARTESIAN_POINT('',(-0.0179877535998821,0.029119172231853,0.016));
#1418=CARTESIAN_POINT('',(-0.0179877535998821,0.029119172231853,0.013));
#1419=CARTESIAN_POINT('',(-0.0179877535998821,0.029119172231853,0.016));
#1420=CARTESIAN_POINT('',(-0.0447627535998822,-0.00465582776814699,0.016));
#1421=CARTESIAN_POINT('',(-0.0447627535998822,-0.00465582776814699,0.016));
#1422=CARTESIAN_POINT('',(-0.0433127535998822,-0.00465582776814699,0.016));
#1423=CARTESIAN_POINT('',(-0.0447627535998822,-0.00465582776814699,0.013));
#1424=CARTESIAN_POINT('',(-0.0433127535998822,-0.00465582776814699,0.013));
#1425=CARTESIAN_POINT('',(0.0226372464001179,-0.00465582776814699,0.016));
#1426=CARTESIAN_POINT('',(0.0226372464001179,-0.00465582776814699,0.016));
#1427=CARTESIAN_POINT('',(0.0240872464001179,-0.00465582776814699,0.016));
#1428=CARTESIAN_POINT('',(0.0226372464001179,-0.00465582776814699,0.013));
#1429=CARTESIAN_POINT('',(0.0240872464001179,-0.00465582776814699,0.013));
#1430=CARTESIAN_POINT('',(0.0226372464001179,0.043744172231853,0.016));
#1431=CARTESIAN_POINT('',(0.0226372464001179,0.043744172231853,0.016));
#1432=CARTESIAN_POINT('',(0.0240872464001179,0.043744172231853,0.016));
#1433=CARTESIAN_POINT('',(0.0226372464001179,0.043744172231853,0.013));
#1434=CARTESIAN_POINT('',(0.0240872464001179,0.043744172231853,0.013));
#1435=CARTESIAN_POINT('',(-0.0447627535998822,0.043744172231853,0.016));
#1436=CARTESIAN_POINT('',(-0.0447627535998822,0.043744172231853,0.016));
#1437=CARTESIAN_POINT('',(-0.0433128375958432,0.043744172231853,0.016));
#1438=CARTESIAN_POINT('',(-0.0447627535998822,0.043744172231853,0.013));
#1439=CARTESIAN_POINT('',(-0.0433128375958432,0.043744172231853,0.013));
#1440=CARTESIAN_POINT('',(0.0276372464001179,0.019544172231853,0.016));
#1441=CARTESIAN_POINT('',(0.0276372464001179,0.019544172231853,0.013));
#1442=CARTESIAN_POINT('',(0.0276372464001179,0.019544172231853,0.016));
#1443=CARTESIAN_POINT('',(0.00851224640011788,0.029697896912694,0.016));
#1444=CARTESIAN_POINT('',(0.00851224640011788,0.029697896912694,0.016));
#1445=CARTESIAN_POINT('',(0.0120122464001179,0.029697896912694,0.016));
#1446=CARTESIAN_POINT('',(0.00851224640011788,0.029697896912694,0.013));
#1447=CARTESIAN_POINT('',(0.0120122464001179,0.029697896912694,0.013));
#1448=CARTESIAN_POINT('',(-0.0110627535998821,0.019544172231853,0.016));
#1449=CARTESIAN_POINT('',(-0.0110627535998821,0.019544172231853,0.013));
#1450=MECHANICAL_DESIGN_GEOMETRIC_PRESENTATION_REPRESENTATION('',(#861),
#1451);
#1451=(
GEOMETRIC_REPRESENTATION_CONTEXT(3)
GLOBAL_UNCERTAINTY_ASSIGNED_CONTEXT((#1452))
GLOBAL_UNIT_ASSIGNED_CONTEXT((#1455,#1454,#1453))
REPRESENTATION_CONTEXT('Part 2','TOP_LEVEL_ASSEMBLY_PART')
);
#1452=UNCERTAINTY_MEASURE_WITH_UNIT(LENGTH_MEASURE(1.E-8),#1455,
'DISTANCE_ACCURACY_VALUE','Maximum Tolerance applied to model');
#1453=(
NAMED_UNIT(*)
SI_UNIT($,.STERADIAN.)
SOLID_ANGLE_UNIT()
);
#1454=(
NAMED_UNIT(*)
PLANE_ANGLE_UNIT()
SI_UNIT($,.RADIAN.)
);
#1455=(
LENGTH_UNIT()
NAMED_UNIT(*)
SI_UNIT($,.METRE.)
);
#1456=PRODUCT_DEFINITION_SHAPE('','',#1457);
#1457=PRODUCT_DEFINITION('','',#1459,#1458);
#1458=PRODUCT_DEFINITION_CONTEXT('',#1465,'design');
#1459=PRODUCT_DEFINITION_FORMATION_WITH_SPECIFIED_SOURCE('','',#1461,
 .NOT_KNOWN.);
#1460=PRODUCT_RELATED_PRODUCT_CATEGORY('','',(#1461));
#1461=PRODUCT('Part 2','Part 2','Part 2',(#1463));
#1462=PRODUCT_CATEGORY('','');
#1463=PRODUCT_CONTEXT('',#1465,'mechanical');
#1464=APPLICATION_PROTOCOL_DEFINITION('international standard',
'ap242_managed_model_based_3d_engineering',2020,#1465);
#1465=APPLICATION_CONTEXT('managed model based 3d engineering');
ENDSEC;
END-ISO-10303-21;
